<svg width="170"
     height="35"
     viewBox="0 0 170 35"
     fill="none"
     xmlns="http://www.w3.org/2000/svg">
    <g clipPath="url(#clip0_2141_3640)">
        <path d="M18.22 30.6V37.16H15.3V33H4.8V18.72H7.82V30.48H13.08V18.72H16.1V30.6H18.22ZM28.645 33H20.425V18.72H28.645V21.2H23.445V24.34H28.285V26.82H23.445V30.5H28.645V33ZM43.3164 33H40.2964V26.84H34.6364V33H31.6164V18.72H34.6364V24.32H40.2964V18.72H43.3164V33ZM52.4094 33H49.3894V21.24H45.5094V18.72H56.2894V21.24H52.4094V33ZM63.0514 18.72C64.8914 18.72 66.2314 19.12 67.0714 19.92C67.9247 20.7067 68.3514 21.7933 68.3514 23.18C68.3514 23.8067 68.2581 24.4067 68.0714 24.98C67.8847 25.54 67.5714 26.0467 67.1314 26.5C66.7047 26.94 66.1381 27.2867 65.4314 27.54C64.7247 27.7933 63.8514 27.92 62.8114 27.92H61.5114V33H58.4914V18.72H63.0514ZM62.8914 21.2H61.5114V25.44H62.5114C63.0847 25.44 63.5781 25.3667 63.9914 25.22C64.4047 25.0733 64.7247 24.84 64.9514 24.52C65.1781 24.2 65.2914 23.7867 65.2914 23.28C65.2914 22.5733 65.0981 22.0533 64.7114 21.72C64.3247 21.3733 63.7181 21.2 62.8914 21.2ZM69.4453 24.5137H83.8496V28.3516H69.4453V24.5137ZM85.8547 18.72H88.5747V25.62C88.5747 25.9533 88.568 26.3267 88.5547 26.74C88.5414 27.1533 88.528 27.56 88.5147 27.96C88.5014 28.3467 88.488 28.6867 88.4747 28.98C88.4614 29.26 88.448 29.4533 88.4347 29.56H88.4947L95.0947 18.72H98.7147V33H96.0147V26.14C96.0147 25.78 96.0214 25.3867 96.0347 24.96C96.048 24.52 96.0614 24.1 96.0747 23.7C96.1014 23.3 96.1214 22.9533 96.1347 22.66C96.1614 22.3533 96.1814 22.1533 96.1947 22.06H96.1147L89.4947 33H85.8547V18.72ZM114.02 33H111V26.84H105.34V33H102.32V18.72H105.34V24.32H111V18.72H114.02V33ZM122.053 18.72C123.319 18.72 124.379 18.84 125.233 19.08C126.099 19.3067 126.746 19.6867 127.173 20.22C127.613 20.74 127.833 21.4467 127.833 22.34C127.833 22.8733 127.746 23.36 127.572 23.8C127.399 24.24 127.146 24.6 126.813 24.88C126.493 25.16 126.099 25.34 125.633 25.42V25.52C126.113 25.6133 126.546 25.78 126.933 26.02C127.319 26.26 127.626 26.6067 127.853 27.06C128.079 27.5133 128.193 28.1133 128.193 28.86C128.193 29.7267 127.979 30.4733 127.553 31.1C127.139 31.7133 126.539 32.1867 125.753 32.52C124.966 32.84 124.033 33 122.953 33H117.613V18.72H122.053ZM122.393 24.38C123.273 24.38 123.879 24.24 124.213 23.96C124.559 23.68 124.733 23.2733 124.733 22.74C124.733 22.1933 124.533 21.8 124.133 21.56C123.733 21.32 123.099 21.2 122.233 21.2H120.633V24.38H122.393ZM120.633 26.78V30.5H122.613C123.519 30.5 124.153 30.3267 124.513 29.98C124.873 29.62 125.053 29.1467 125.053 28.56C125.053 28.2 124.973 27.8867 124.813 27.62C124.666 27.3533 124.406 27.1467 124.033 27C123.659 26.8533 123.153 26.78 122.513 26.78H120.633ZM139.27 33H131.05V18.72H139.27V21.2H134.07V24.34H138.91V26.82H134.07V30.5H139.27V33ZM148.301 21.04C147.728 21.04 147.215 21.1533 146.761 21.38C146.321 21.6067 145.948 21.9333 145.641 22.36C145.335 22.7733 145.101 23.28 144.941 23.88C144.795 24.48 144.721 25.1533 144.721 25.9C144.721 26.9133 144.841 27.78 145.081 28.5C145.335 29.2067 145.728 29.7467 146.261 30.12C146.795 30.4933 147.475 30.68 148.301 30.68C148.888 30.68 149.468 30.6133 150.041 30.48C150.628 30.3467 151.261 30.16 151.941 29.92V32.46C151.315 32.7133 150.695 32.9 150.081 33.02C149.468 33.14 148.781 33.2 148.021 33.2C146.555 33.2 145.341 32.9 144.381 32.3C143.435 31.6867 142.735 30.8333 142.281 29.74C141.828 28.6333 141.601 27.3467 141.601 25.88C141.601 24.8 141.748 23.8133 142.041 22.92C142.335 22.0133 142.761 21.2333 143.321 20.58C143.895 19.9267 144.595 19.42 145.421 19.06C146.261 18.7 147.221 18.52 148.301 18.52C149.008 18.52 149.715 18.6133 150.421 18.8C151.141 18.9733 151.828 19.2133 152.481 19.52L151.501 21.98C150.968 21.7267 150.428 21.5067 149.881 21.32C149.348 21.1333 148.821 21.04 148.301 21.04ZM160.476 33H157.456V21.24H153.576V18.72H164.356V21.24H160.476V33Z"
              fill="#3AAA35" />
        <path d="M4.44 15V3.576H11.656V5.576H6.856V7.96H7.816C8.89333 7.96 9.77333 8.10933 10.456 8.408C11.1493 8.70667 11.6613 9.11733 11.992 9.64C12.3227 10.1627 12.488 10.76 12.488 11.432C12.488 12.1787 12.3227 12.8187 11.992 13.352C11.6613 13.8853 11.1493 14.296 10.456 14.584C9.76267 14.8613 8.86667 15 7.768 15H4.44ZM7.672 13.016C8.408 13.016 8.984 12.8987 9.4 12.664C9.82667 12.4293 10.04 12.0187 10.04 11.432C10.04 11.0267 9.93333 10.7173 9.72 10.504C9.51733 10.2907 9.224 10.1467 8.84 10.072C8.46667 9.98667 8.01333 9.944 7.48 9.944H6.856V13.016H7.672ZM21.6351 15L20.8031 12.28H16.6431L15.8111 15H13.2031L17.2351 3.528H20.1951L24.2431 15H21.6351ZM19.3951 7.592C19.3418 7.41067 19.2725 7.18133 19.1871 6.904C19.1018 6.62667 19.0165 6.344 18.9311 6.056C18.8458 5.768 18.7765 5.51733 18.7231 5.304C18.6698 5.51733 18.5951 5.784 18.4991 6.104C18.4138 6.41333 18.3285 6.712 18.2431 7C18.1685 7.27733 18.1098 7.47467 18.0671 7.592L17.2511 10.248H20.2271L19.3951 7.592ZM35.05 15H32.634V10.072H28.106V15H25.69V3.576H28.106V8.056H32.634V3.576H35.05V15ZM47.2364 15H44.4844L40.3404 9.208V15H37.9244V3.576H40.3404V9.112L44.4364 3.576H47.0124L42.8524 9.064L47.2364 15Z"
              fill="#3AAA35" />
    </g>
    <defs>
        <clipPath id="clip0_2141_3640">
            <rect width="170"
                  height="35"
                  fill="white" />
        </clipPath>
    </defs>
</svg>