<svg version="1.1"
     id="Capa_1"
     xmlns="http://www.w3.org/2000/svg"
     x="0px"
     y="0px"
     viewBox="0 0 512 512">
    <g>
        <g>
            <g>
                <path d="M256,431.835c94.888,0,172.09-77.201,172.098-172.099c0-9.043-7.331-16.383-16.383-16.383s-16.383,7.331-16.383,16.383 c0,76.828-62.505,139.333-139.333,139.333s-139.333-62.505-139.333-139.333c0-9.043-7.331-16.383-16.383-16.383 s-16.383,7.331-16.383,16.383C83.902,354.634,161.103,431.835,256,431.835z" />
                <path d="M256,375.099c63.605,0,115.354-51.748,115.354-115.362v-95.714c0-9.043-7.331-16.383-16.383-16.383 c-9.052,0-16.383,7.331-16.383,16.383v95.723c0,45.536-37.052,82.588-82.597,82.588c-45.554,0-82.615-37.052-82.615-82.588 V115.371c0-45.545,37.061-82.597,82.615-82.597c45.545,0,82.597,37.052,82.597,82.597c0,9.043,7.331,16.383,16.383,16.383 c9.052,0,16.383-7.331,16.383-16.383C371.354,51.757,319.605,0,256,0c-63.614,0-115.371,51.757-115.371,115.371v144.365 C140.629,323.35,192.386,375.099,256,375.099z" />
                <path d="M361.733,479.235h-89.351v-19.161c0-9.052-7.331-16.383-16.383-16.383c-9.052,0-16.383,7.331-16.383,16.383v19.161 h-89.351c-9.052,0-16.383,7.322-16.383,16.374c0,9.052,7.331,16.392,16.383,16.392h211.467c9.043,0,16.383-7.331,16.383-16.383 C378.116,486.565,370.786,479.235,361.733,479.235z" />
                <path d="M207.553,225.382c-4.073,4.082-6.479,9.851-6.479,15.708c0,5.857,2.396,11.537,6.479,15.62 c4.171,4.171,9.851,6.567,15.708,6.567s11.537-2.396,15.708-6.567c4.073-4.082,6.47-9.851,6.47-15.62 c0-5.857-2.387-11.537-6.47-15.708C230.707,217.129,215.806,217.129,207.553,225.382z" />
                <path d="M273.048,225.382c-4.162,4.082-6.479,9.762-6.479,15.708c0,5.857,2.307,11.537,6.479,15.62 c4.082,4.171,9.86,6.567,15.708,6.567c5.857,0,11.546-2.396,15.62-6.567c4.162-4.082,6.558-9.851,6.558-15.62 c0-5.857-2.387-11.626-6.558-15.708C296.123,217.129,281.302,217.129,273.048,225.382z" />
                <path d="M238.969,118.353c-8.262-8.253-23.163-8.253-31.417,0c-4.073,4.171-6.479,9.851-6.479,15.708 c0,5.857,2.396,11.537,6.479,15.708c4.082,4.082,9.851,6.479,15.708,6.479s11.537-2.396,15.708-6.479 c4.073-4.171,6.47-9.851,6.47-15.708C245.439,128.204,243.052,122.524,238.969,118.353z" />
                <path d="M304.376,118.353c-8.253-8.253-23.074-8.253-31.328,0c-4.162,4.171-6.479,9.851-6.479,15.708 c0,5.857,2.307,11.537,6.479,15.708c4.171,4.082,9.86,6.479,15.708,6.479c5.769,0,11.546-2.396,15.62-6.479 c4.162-4.171,6.558-9.851,6.558-15.708C310.934,128.204,308.547,122.524,304.376,118.353z" />
                <path d="M238.969,171.868c-8.342-8.253-23.163-8.253-31.417,0c-4.073,4.082-6.479,9.851-6.479,15.708 c0,5.857,2.396,11.537,6.479,15.62c4.082,4.171,9.851,6.567,15.708,6.567s11.537-2.396,15.708-6.567 c4.073-4.082,6.47-9.851,6.47-15.62C245.439,181.719,243.052,176.039,238.969,171.868z" />
                <path d="M304.376,171.868c-8.165-8.253-23.074-8.253-31.328,0c-4.162,4.082-6.479,9.851-6.479,15.708 c0,5.857,2.307,11.537,6.479,15.62c4.082,4.171,9.86,6.567,15.708,6.567c5.857,0,11.546-2.396,15.62-6.567 c4.162-4.082,6.558-9.762,6.558-15.62C310.934,181.719,308.547,175.95,304.376,171.868z" />
            </g>
        </g>
    </g>
</svg>