<svg version="1.1"
     id="Capa_1"
     xmlns="http://www.w3.org/2000/svg"
     x="0px"
     y="0px"
     viewBox="0 0 512.009 512.009">
    <g>
        <g>
            <g>
                <path d="M256.004,0.004C114.832,0.004,0,114.845,0,256.009s114.832,255.996,256.004,255.996 c141.164,0,256.004-114.823,256.004-255.996S397.177,0.004,256.004,0.004z M256.004,479.247 C132.91,479.247,32.766,379.094,32.766,256S132.91,32.762,256.004,32.762s223.238,100.153,223.238,223.247 S379.099,479.247,256.004,479.247z" />
                <circle cx="256.004"
                        cy="380.328"
                        r="22.187" />
                <path d="M264.436,116.824c-44.25-0.683-94.686,19.037-101.466,64.795c-1.322,8.955,4.863,17.288,13.809,18.611 c8.981,1.305,17.288-4.863,18.611-13.809c3.701-25.009,37.434-37.479,68.399-36.831c30.876,0.604,63.384,13.756,66.402,41.756 c2.094,19.347-10.579,28.435-37.958,43.212c-11.431,6.177-23.261,12.567-32.163,21.158 c-21.655,20.847-21.575,41.676-21.513,58.423l0.009,2.778c0,9.052,7.331,16.383,16.383,16.383 c9.044,0,16.374-7.331,16.383-16.383v-2.902c-0.062-14.697-0.089-23.563,11.475-34.701c5.689-5.494,15.07-10.561,25-15.922 c25.169-13.596,59.639-32.216,54.962-75.561C357.622,140.023,309.68,117.721,264.436,116.824z" />
            </g>
        </g>
    </g>
</svg>