<svg version="1.1"
     id="Capa_1"
     xmlns="http://www.w3.org/2000/svg"
     x="0px"
     y="0px"
     viewBox="0 0 426.667 426.667"
>
    <g>
        <g>
            <g>
                <path fill="#626265" d="M213.333,0C95.68,0,0,95.68,0,213.333s95.68,213.333,213.333,213.333s213.333-95.68,213.333-213.333S330.987,0,213.333,0 z M213.333,384c-94.08,0-170.667-76.587-170.667-170.667S119.253,42.667,213.333,42.667S384,119.253,384,213.333 S307.413,384,213.333,384z" />
                <path fill="#e94242" d="M213.333,149.333c-35.307,0-64,28.693-64,64s28.693,64,64,64s64-28.693,64-64S248.64,149.333,213.333,149.333z" />
            </g>
        </g>
    </g>
</svg>